<svg width="20" height="20" role="presentation" focusable="false" viewBox="0 0 24 24" xmlns="http://www.w3.org/2000/svg"><path fill-rule="evenodd" clip-rule="evenodd" d="M3.58579 10.4142C3.21071 10.7893 3 11.298 3 11.8284V19C3 20.1045 3.89543 21 5 21H10C10.5523 21 11 20.5523 11 20V14H13V20C13 20.5523 13.4477 21 14 21H19C20.1046 21 21 20.1045 21 19V11.8284C21 11.298 20.7893 10.7893 20.4142 10.4142L12.7071 2.70708C12.3166 2.31655 11.6834 2.31655 11.2929 2.70708L3.58579 10.4142ZM13 12C14.1046 12 15 12.8954 15 14V19H19V11.8284L12 4.8284L5 11.8284V19H9V14C9 12.8954 9.89543 12 11 12H13Z" fill="currentColor"></path></svg>
